<?xml version="1.0" standalone="no" ?>
<!DOCTYPE svg PUBLIC "-//W3C//DTD SVG 1.1//EN" "http://www.w3.org/Graphics/SVG/1.1/DTD/svg11.dtd">
<svg width="2000px" height="1000px" xmlns="http://www.w3.org/2000/svg" version="1.1" >
	<polyline points="50,950 50,830 " fill="transparent" stroke-width="3" stroke="rgb(0,0,0)" />
	<polyline points="50,950 170,950 " fill="transparent" stroke-width="3" stroke="rgb(0,0,0)" />
	<polyline points="50,950 170,830 " fill="transparent" stroke-width="3" stroke="rgb(0,0,0)" />
	<polyline points="50,950 170,710 " fill="transparent" stroke-width="3" stroke="rgb(0,0,0)" />
	<polyline points="50,830 170,710 " fill="transparent" stroke-width="3" stroke="rgb(0,0,0)" />
	<polyline points="50,710 50,830 " fill="transparent" stroke-width="3" stroke="rgb(0,0,0)" />
	<polyline points="50,710 50,590 " fill="transparent" stroke-width="3" stroke="rgb(0,0,0)" />
	<polyline points="50,710 170,470 " fill="transparent" stroke-width="3" stroke="rgb(0,0,0)" />
	<polyline points="50,710 290,590 " fill="transparent" stroke-width="3" stroke="rgb(0,0,0)" />
	<polyline points="50,350 50,470 " fill="transparent" stroke-width="3" stroke="rgb(0,0,0)" />
	<polyline points="170,830 170,710 " fill="transparent" stroke-width="3" stroke="rgb(0,0,0)" />
	<polyline points="170,710 290,590 " fill="transparent" stroke-width="3" stroke="rgb(0,0,0)" />
	<polyline points="170,710 410,590 " fill="transparent" stroke-width="3" stroke="rgb(0,0,0)" />
	<polyline points="170,590 290,590 " fill="transparent" stroke-width="3" stroke="rgb(0,0,0)" />
	<polyline points="170,590 290,470 " fill="transparent" stroke-width="3" stroke="rgb(0,0,0)" />
	<polyline points="170,470 50,590 " fill="transparent" stroke-width="3" stroke="rgb(0,0,0)" />
	<polyline points="170,470 50,470 " fill="transparent" stroke-width="3" stroke="rgb(0,0,0)" />
	<polyline points="170,470 170,350 " fill="transparent" stroke-width="3" stroke="rgb(0,0,0)" />
	<polyline points="170,470 290,470 " fill="transparent" stroke-width="3" stroke="rgb(0,0,0)" />
	<polyline points="170,470 410,350 " fill="transparent" stroke-width="3" stroke="rgb(0,0,0)" />
	<polyline points="170,350 50,470 " fill="transparent" stroke-width="3" stroke="rgb(0,0,0)" />
	<polyline points="170,350 290,350 " fill="transparent" stroke-width="3" stroke="rgb(0,0,0)" />
	<polyline points="170,350 290,230 " fill="transparent" stroke-width="3" stroke="rgb(0,0,0)" />
	<polyline points="170,350 290,110 " fill="transparent" stroke-width="3" stroke="rgb(0,0,0)" />
	<polyline points="170,350 410,230 " fill="transparent" stroke-width="3" stroke="rgb(0,0,0)" />
	<polyline points="170,230 50,470 " fill="transparent" stroke-width="3" stroke="rgb(0,0,0)" />
	<polyline points="170,230 50,350 " fill="transparent" stroke-width="3" stroke="rgb(0,0,0)" />
	<polyline points="170,230 290,110 " fill="transparent" stroke-width="3" stroke="rgb(0,0,0)" />
	<polyline points="170,110 50,350 " fill="transparent" stroke-width="3" stroke="rgb(0,0,0)" />
	<polyline points="170,110 50,230 " fill="transparent" stroke-width="3" stroke="rgb(0,0,0)" />
	<polyline points="170,110 290,110 " fill="transparent" stroke-width="3" stroke="rgb(0,0,0)" />
	<polyline points="290,950 170,950 " fill="transparent" stroke-width="3" stroke="rgb(0,0,0)" />
	<polyline points="290,950 410,950 " fill="transparent" stroke-width="3" stroke="rgb(0,0,0)" />
	<polyline points="290,950 530,830 " fill="transparent" stroke-width="3" stroke="rgb(0,0,0)" />
	<polyline points="290,830 410,830 " fill="transparent" stroke-width="3" stroke="rgb(0,0,0)" />
	<polyline points="290,830 530,710 " fill="transparent" stroke-width="3" stroke="rgb(0,0,0)" />
	<polyline points="290,710 170,830 " fill="transparent" stroke-width="3" stroke="rgb(0,0,0)" />
	<polyline points="290,710 410,710 " fill="transparent" stroke-width="3" stroke="rgb(0,0,0)" />
	<polyline points="290,710 530,590 " fill="transparent" stroke-width="3" stroke="rgb(0,0,0)" />
	<polyline points="290,590 410,470 " fill="transparent" stroke-width="3" stroke="rgb(0,0,0)" />
	<polyline points="290,470 290,590 " fill="transparent" stroke-width="3" stroke="rgb(0,0,0)" />
	<polyline points="290,470 410,470 " fill="transparent" stroke-width="3" stroke="rgb(0,0,0)" />
	<polyline points="290,470 530,350 " fill="transparent" stroke-width="3" stroke="rgb(0,0,0)" />
	<polyline points="290,350 530,230 " fill="transparent" stroke-width="3" stroke="rgb(0,0,0)" />
	<polyline points="290,230 410,110 " fill="transparent" stroke-width="3" stroke="rgb(0,0,0)" />
	<polyline points="290,110 290,230 " fill="transparent" stroke-width="3" stroke="rgb(0,0,0)" />
	<polyline points="410,830 170,950 " fill="transparent" stroke-width="3" stroke="rgb(0,0,0)" />
	<polyline points="410,710 170,830 " fill="transparent" stroke-width="3" stroke="rgb(0,0,0)" />
	<polyline points="410,710 290,830 " fill="transparent" stroke-width="3" stroke="rgb(0,0,0)" />
	<polyline points="410,710 650,590 " fill="transparent" stroke-width="3" stroke="rgb(0,0,0)" />
	<polyline points="410,590 290,590 " fill="transparent" stroke-width="3" stroke="rgb(0,0,0)" />
	<polyline points="410,590 410,470 " fill="transparent" stroke-width="3" stroke="rgb(0,0,0)" />
	<polyline points="410,470 530,350 " fill="transparent" stroke-width="3" stroke="rgb(0,0,0)" />
	<polyline points="410,350 290,470 " fill="transparent" stroke-width="3" stroke="rgb(0,0,0)" />
	<polyline points="410,350 290,350 " fill="transparent" stroke-width="3" stroke="rgb(0,0,0)" />
	<polyline points="410,230 290,350 " fill="transparent" stroke-width="3" stroke="rgb(0,0,0)" />
	<polyline points="410,230 290,230 " fill="transparent" stroke-width="3" stroke="rgb(0,0,0)" />
	<polyline points="410,230 410,110 " fill="transparent" stroke-width="3" stroke="rgb(0,0,0)" />
	<polyline points="410,230 530,230 " fill="transparent" stroke-width="3" stroke="rgb(0,0,0)" />
	<polyline points="410,230 530,110 " fill="transparent" stroke-width="3" stroke="rgb(0,0,0)" />
	<polyline points="410,230 650,110 " fill="transparent" stroke-width="3" stroke="rgb(0,0,0)" />
	<polyline points="410,110 530,110 " fill="transparent" stroke-width="3" stroke="rgb(0,0,0)" />
	<polyline points="530,950 650,950 " fill="transparent" stroke-width="3" stroke="rgb(0,0,0)" />
	<polyline points="530,830 410,950 " fill="transparent" stroke-width="3" stroke="rgb(0,0,0)" />
	<polyline points="530,830 410,830 " fill="transparent" stroke-width="3" stroke="rgb(0,0,0)" />
	<polyline points="530,830 530,950 " fill="transparent" stroke-width="3" stroke="rgb(0,0,0)" />
	<polyline points="530,830 650,830 " fill="transparent" stroke-width="3" stroke="rgb(0,0,0)" />
	<polyline points="530,710 410,830 " fill="transparent" stroke-width="3" stroke="rgb(0,0,0)" />
	<polyline points="530,710 650,590 " fill="transparent" stroke-width="3" stroke="rgb(0,0,0)" />
	<polyline points="530,590 410,590 " fill="transparent" stroke-width="3" stroke="rgb(0,0,0)" />
	<polyline points="530,590 650,590 " fill="transparent" stroke-width="3" stroke="rgb(0,0,0)" />
	<polyline points="530,590 770,470 " fill="transparent" stroke-width="3" stroke="rgb(0,0,0)" />
	<polyline points="530,470 410,590 " fill="transparent" stroke-width="3" stroke="rgb(0,0,0)" />
	<polyline points="530,470 530,350 " fill="transparent" stroke-width="3" stroke="rgb(0,0,0)" />
	<polyline points="530,470 650,470 " fill="transparent" stroke-width="3" stroke="rgb(0,0,0)" />
	<polyline points="530,350 650,230 " fill="transparent" stroke-width="3" stroke="rgb(0,0,0)" />
	<polyline points="530,230 530,350 " fill="transparent" stroke-width="3" stroke="rgb(0,0,0)" />
	<polyline points="530,230 650,230 " fill="transparent" stroke-width="3" stroke="rgb(0,0,0)" />
	<polyline points="530,230 770,110 " fill="transparent" stroke-width="3" stroke="rgb(0,0,0)" />
	<polyline points="650,950 770,950 " fill="transparent" stroke-width="3" stroke="rgb(0,0,0)" />
	<polyline points="650,830 530,950 " fill="transparent" stroke-width="3" stroke="rgb(0,0,0)" />
	<polyline points="650,830 650,950 " fill="transparent" stroke-width="3" stroke="rgb(0,0,0)" />
	<polyline points="650,830 650,710 " fill="transparent" stroke-width="3" stroke="rgb(0,0,0)" />
	<polyline points="650,830 770,830 " fill="transparent" stroke-width="3" stroke="rgb(0,0,0)" />
	<polyline points="650,830 770,710 " fill="transparent" stroke-width="3" stroke="rgb(0,0,0)" />
	<polyline points="650,830 770,590 " fill="transparent" stroke-width="3" stroke="rgb(0,0,0)" />
	<polyline points="650,830 890,710 " fill="transparent" stroke-width="3" stroke="rgb(0,0,0)" />
	<polyline points="650,710 410,830 " fill="transparent" stroke-width="3" stroke="rgb(0,0,0)" />
	<polyline points="650,710 650,590 " fill="transparent" stroke-width="3" stroke="rgb(0,0,0)" />
	<polyline points="650,710 770,590 " fill="transparent" stroke-width="3" stroke="rgb(0,0,0)" />
	<polyline points="650,470 410,590 " fill="transparent" stroke-width="3" stroke="rgb(0,0,0)" />
	<polyline points="650,470 530,590 " fill="transparent" stroke-width="3" stroke="rgb(0,0,0)" />
	<polyline points="650,470 530,350 " fill="transparent" stroke-width="3" stroke="rgb(0,0,0)" />
	<polyline points="650,470 770,470 " fill="transparent" stroke-width="3" stroke="rgb(0,0,0)" />
	<polyline points="650,470 890,350 " fill="transparent" stroke-width="3" stroke="rgb(0,0,0)" />
	<polyline points="650,350 530,350 " fill="transparent" stroke-width="3" stroke="rgb(0,0,0)" />
	<polyline points="650,230 770,110 " fill="transparent" stroke-width="3" stroke="rgb(0,0,0)" />
	<polyline points="650,110 530,230 " fill="transparent" stroke-width="3" stroke="rgb(0,0,0)" />
	<polyline points="770,830 890,830 " fill="transparent" stroke-width="3" stroke="rgb(0,0,0)" />
	<polyline points="770,830 890,710 " fill="transparent" stroke-width="3" stroke="rgb(0,0,0)" />
	<polyline points="770,710 890,710 " fill="transparent" stroke-width="3" stroke="rgb(0,0,0)" />
	<polyline points="770,590 650,590 " fill="transparent" stroke-width="3" stroke="rgb(0,0,0)" />
	<polyline points="770,590 770,470 " fill="transparent" stroke-width="3" stroke="rgb(0,0,0)" />
	<polyline points="770,590 890,590 " fill="transparent" stroke-width="3" stroke="rgb(0,0,0)" />
	<polyline points="770,590 890,350 " fill="transparent" stroke-width="3" stroke="rgb(0,0,0)" />
	<polyline points="770,470 650,590 " fill="transparent" stroke-width="3" stroke="rgb(0,0,0)" />
	<polyline points="770,470 890,350 " fill="transparent" stroke-width="3" stroke="rgb(0,0,0)" />
	<polyline points="770,350 650,350 " fill="transparent" stroke-width="3" stroke="rgb(0,0,0)" />
	<polyline points="770,350 890,230 " fill="transparent" stroke-width="3" stroke="rgb(0,0,0)" />
	<polyline points="770,230 530,350 " fill="transparent" stroke-width="3" stroke="rgb(0,0,0)" />
	<polyline points="770,230 650,350 " fill="transparent" stroke-width="3" stroke="rgb(0,0,0)" />
	<polyline points="770,230 770,350 " fill="transparent" stroke-width="3" stroke="rgb(0,0,0)" />
	<polyline points="770,230 890,230 " fill="transparent" stroke-width="3" stroke="rgb(0,0,0)" />
	<polyline points="890,950 1010,950 " fill="transparent" stroke-width="3" stroke="rgb(0,0,0)" />
	<polyline points="890,950 1010,830 " fill="transparent" stroke-width="3" stroke="rgb(0,0,0)" />
	<polyline points="890,950 1010,710 " fill="transparent" stroke-width="3" stroke="rgb(0,0,0)" />
	<polyline points="890,950 1130,830 " fill="transparent" stroke-width="3" stroke="rgb(0,0,0)" />
	<polyline points="890,830 650,950 " fill="transparent" stroke-width="3" stroke="rgb(0,0,0)" />
	<polyline points="890,830 770,950 " fill="transparent" stroke-width="3" stroke="rgb(0,0,0)" />
	<polyline points="890,830 890,950 " fill="transparent" stroke-width="3" stroke="rgb(0,0,0)" />
	<polyline points="890,830 890,710 " fill="transparent" stroke-width="3" stroke="rgb(0,0,0)" />
	<polyline points="890,830 1010,710 " fill="transparent" stroke-width="3" stroke="rgb(0,0,0)" />
	<polyline points="890,710 770,590 " fill="transparent" stroke-width="3" stroke="rgb(0,0,0)" />
	<polyline points="890,710 890,590 " fill="transparent" stroke-width="3" stroke="rgb(0,0,0)" />
	<polyline points="890,710 1010,710 " fill="transparent" stroke-width="3" stroke="rgb(0,0,0)" />
	<polyline points="890,710 1010,470 " fill="transparent" stroke-width="3" stroke="rgb(0,0,0)" />
	<polyline points="890,470 890,350 " fill="transparent" stroke-width="3" stroke="rgb(0,0,0)" />
	<polyline points="890,350 770,350 " fill="transparent" stroke-width="3" stroke="rgb(0,0,0)" />
	<polyline points="890,110 650,230 " fill="transparent" stroke-width="3" stroke="rgb(0,0,0)" />
	<polyline points="1010,950 1130,830 " fill="transparent" stroke-width="3" stroke="rgb(0,0,0)" />
	<polyline points="1010,830 1130,830 " fill="transparent" stroke-width="3" stroke="rgb(0,0,0)" />
	<polyline points="1010,710 1010,830 " fill="transparent" stroke-width="3" stroke="rgb(0,0,0)" />
	<polyline points="1010,710 1010,590 " fill="transparent" stroke-width="3" stroke="rgb(0,0,0)" />
	<polyline points="1010,710 1130,830 " fill="transparent" stroke-width="3" stroke="rgb(0,0,0)" />
	<polyline points="1010,710 1130,710 " fill="transparent" stroke-width="3" stroke="rgb(0,0,0)" />
	<polyline points="1010,710 1130,590 " fill="transparent" stroke-width="3" stroke="rgb(0,0,0)" />
	<polyline points="1010,590 1130,590 " fill="transparent" stroke-width="3" stroke="rgb(0,0,0)" />
	<polyline points="1010,470 770,590 " fill="transparent" stroke-width="3" stroke="rgb(0,0,0)" />
	<polyline points="1010,470 890,590 " fill="transparent" stroke-width="3" stroke="rgb(0,0,0)" />
	<polyline points="1010,470 890,470 " fill="transparent" stroke-width="3" stroke="rgb(0,0,0)" />
	<polyline points="1010,350 890,470 " fill="transparent" stroke-width="3" stroke="rgb(0,0,0)" />
	<polyline points="1010,350 890,350 " fill="transparent" stroke-width="3" stroke="rgb(0,0,0)" />
	<polyline points="1010,350 1130,350 " fill="transparent" stroke-width="3" stroke="rgb(0,0,0)" />
	<polyline points="1010,230 890,350 " fill="transparent" stroke-width="3" stroke="rgb(0,0,0)" />
	<polyline points="1010,230 890,230 " fill="transparent" stroke-width="3" stroke="rgb(0,0,0)" />
	<polyline points="1010,230 1130,230 " fill="transparent" stroke-width="3" stroke="rgb(0,0,0)" />
	<polyline points="1010,110 770,230 " fill="transparent" stroke-width="3" stroke="rgb(0,0,0)" />
	<polyline points="1010,110 890,110 " fill="transparent" stroke-width="3" stroke="rgb(0,0,0)" />
	<polyline points="1010,110 1130,110 " fill="transparent" stroke-width="3" stroke="rgb(0,0,0)" />
	<polyline points="1130,950 1130,830 " fill="transparent" stroke-width="3" stroke="rgb(0,0,0)" />
	<polyline points="1130,710 1130,830 " fill="transparent" stroke-width="3" stroke="rgb(0,0,0)" />
	<polyline points="1130,710 1130,590 " fill="transparent" stroke-width="3" stroke="rgb(0,0,0)" />
	<polyline points="1130,470 1010,590 " fill="transparent" stroke-width="3" stroke="rgb(0,0,0)" />
	<polyline points="1130,470 1130,590 " fill="transparent" stroke-width="3" stroke="rgb(0,0,0)" />
	<polyline points="1130,350 890,470 " fill="transparent" stroke-width="3" stroke="rgb(0,0,0)" />
	<polyline points="1130,350 1010,590 " fill="transparent" stroke-width="3" stroke="rgb(0,0,0)" />
	<polyline points="1130,350 1010,470 " fill="transparent" stroke-width="3" stroke="rgb(0,0,0)" />
	<polyline points="1130,350 1130,470 " fill="transparent" stroke-width="3" stroke="rgb(0,0,0)" />
	<polyline points="1130,230 890,350 " fill="transparent" stroke-width="3" stroke="rgb(0,0,0)" />
	<polyline points="1130,230 1010,350 " fill="transparent" stroke-width="3" stroke="rgb(0,0,0)" />
	<polyline points="1130,110 890,230 " fill="transparent" stroke-width="3" stroke="rgb(0,0,0)" />
	<polyline points="1130,110 1130,230 " fill="transparent" stroke-width="3" stroke="rgb(0,0,0)" />
	<polyline points="50,950 170,710 " fill="transparent" stroke-width="3" stroke="rgb(255,0,0)" />
	<polyline points="170,710 410,590 " fill="transparent" stroke-width="3" stroke="rgb(255,0,0)" />
	<polyline points="650,470 410,590 " fill="transparent" stroke-width="3" stroke="rgb(255,0,0)" />
	<polyline points="650,470 890,350 " fill="transparent" stroke-width="3" stroke="rgb(255,0,0)" />
	<polyline points="1010,350 890,350 " fill="transparent" stroke-width="3" stroke="rgb(255,0,0)" />
	<polyline points="1010,350 1130,350 " fill="transparent" stroke-width="3" stroke="rgb(255,0,0)" />
	<polyline points="1130,950 1130,830 " fill="transparent" stroke-width="3" stroke="rgb(255,0,0)" />
	<polyline points="1130,710 1130,830 " fill="transparent" stroke-width="3" stroke="rgb(255,0,0)" />
	<polyline points="1130,710 1130,590 " fill="transparent" stroke-width="3" stroke="rgb(255,0,0)" />
	<polyline points="1130,470 1130,590 " fill="transparent" stroke-width="3" stroke="rgb(255,0,0)" />
	<polyline points="1130,350 1130,470 " fill="transparent" stroke-width="3" stroke="rgb(255,0,0)" />
	<circle cx="50" cy="950" r="10" fill="rgb(0,0,0)" stroke-width="1" stroke="rgb(0,0,0)" />
	<circle cx="50" cy="830" r="10" fill="rgb(0,0,0)" stroke-width="1" stroke="rgb(0,0,0)" />
	<circle cx="50" cy="710" r="10" fill="rgb(0,0,0)" stroke-width="1" stroke="rgb(0,0,0)" />
	<circle cx="50" cy="590" r="10" fill="rgb(0,0,0)" stroke-width="1" stroke="rgb(0,0,0)" />
	<circle cx="50" cy="470" r="10" fill="rgb(0,0,0)" stroke-width="1" stroke="rgb(0,0,0)" />
	<circle cx="50" cy="350" r="10" fill="rgb(0,0,0)" stroke-width="1" stroke="rgb(0,0,0)" />
	<circle cx="50" cy="230" r="10" fill="rgb(0,0,0)" stroke-width="1" stroke="rgb(0,0,0)" />
	<circle cx="170" cy="950" r="10" fill="rgb(0,0,0)" stroke-width="1" stroke="rgb(0,0,0)" />
	<circle cx="170" cy="830" r="10" fill="rgb(0,0,0)" stroke-width="1" stroke="rgb(0,0,0)" />
	<circle cx="170" cy="710" r="10" fill="rgb(0,0,0)" stroke-width="1" stroke="rgb(0,0,0)" />
	<circle cx="170" cy="590" r="10" fill="rgb(0,0,0)" stroke-width="1" stroke="rgb(0,0,0)" />
	<circle cx="170" cy="470" r="10" fill="rgb(0,0,0)" stroke-width="1" stroke="rgb(0,0,0)" />
	<circle cx="170" cy="350" r="10" fill="rgb(0,0,0)" stroke-width="1" stroke="rgb(0,0,0)" />
	<circle cx="170" cy="230" r="10" fill="rgb(0,0,0)" stroke-width="1" stroke="rgb(0,0,0)" />
	<circle cx="170" cy="110" r="10" fill="rgb(0,0,0)" stroke-width="1" stroke="rgb(0,0,0)" />
	<circle cx="290" cy="950" r="10" fill="rgb(0,0,0)" stroke-width="1" stroke="rgb(0,0,0)" />
	<circle cx="290" cy="830" r="10" fill="rgb(0,0,0)" stroke-width="1" stroke="rgb(0,0,0)" />
	<circle cx="290" cy="710" r="10" fill="rgb(0,0,0)" stroke-width="1" stroke="rgb(0,0,0)" />
	<circle cx="290" cy="590" r="10" fill="rgb(0,0,0)" stroke-width="1" stroke="rgb(0,0,0)" />
	<circle cx="290" cy="470" r="10" fill="rgb(0,0,0)" stroke-width="1" stroke="rgb(0,0,0)" />
	<circle cx="290" cy="350" r="10" fill="rgb(0,0,0)" stroke-width="1" stroke="rgb(0,0,0)" />
	<circle cx="290" cy="230" r="10" fill="rgb(0,0,0)" stroke-width="1" stroke="rgb(0,0,0)" />
	<circle cx="290" cy="110" r="10" fill="rgb(0,0,0)" stroke-width="1" stroke="rgb(0,0,0)" />
	<circle cx="410" cy="950" r="10" fill="rgb(0,0,0)" stroke-width="1" stroke="rgb(0,0,0)" />
	<circle cx="410" cy="830" r="10" fill="rgb(0,0,0)" stroke-width="1" stroke="rgb(0,0,0)" />
	<circle cx="410" cy="710" r="10" fill="rgb(0,0,0)" stroke-width="1" stroke="rgb(0,0,0)" />
	<circle cx="410" cy="590" r="10" fill="rgb(0,0,0)" stroke-width="1" stroke="rgb(0,0,0)" />
	<circle cx="410" cy="470" r="10" fill="rgb(0,0,0)" stroke-width="1" stroke="rgb(0,0,0)" />
	<circle cx="410" cy="350" r="10" fill="rgb(0,0,0)" stroke-width="1" stroke="rgb(0,0,0)" />
	<circle cx="410" cy="230" r="10" fill="rgb(0,0,0)" stroke-width="1" stroke="rgb(0,0,0)" />
	<circle cx="410" cy="110" r="10" fill="rgb(0,0,0)" stroke-width="1" stroke="rgb(0,0,0)" />
	<circle cx="530" cy="950" r="10" fill="rgb(0,0,0)" stroke-width="1" stroke="rgb(0,0,0)" />
	<circle cx="530" cy="830" r="10" fill="rgb(0,0,0)" stroke-width="1" stroke="rgb(0,0,0)" />
	<circle cx="530" cy="710" r="10" fill="rgb(0,0,0)" stroke-width="1" stroke="rgb(0,0,0)" />
	<circle cx="530" cy="590" r="10" fill="rgb(0,0,0)" stroke-width="1" stroke="rgb(0,0,0)" />
	<circle cx="530" cy="470" r="10" fill="rgb(0,0,0)" stroke-width="1" stroke="rgb(0,0,0)" />
	<circle cx="530" cy="350" r="10" fill="rgb(0,0,0)" stroke-width="1" stroke="rgb(0,0,0)" />
	<circle cx="530" cy="230" r="10" fill="rgb(0,0,0)" stroke-width="1" stroke="rgb(0,0,0)" />
	<circle cx="530" cy="110" r="10" fill="rgb(0,0,0)" stroke-width="1" stroke="rgb(0,0,0)" />
	<circle cx="650" cy="950" r="10" fill="rgb(0,0,0)" stroke-width="1" stroke="rgb(0,0,0)" />
	<circle cx="650" cy="830" r="10" fill="rgb(0,0,0)" stroke-width="1" stroke="rgb(0,0,0)" />
	<circle cx="650" cy="710" r="10" fill="rgb(0,0,0)" stroke-width="1" stroke="rgb(0,0,0)" />
	<circle cx="650" cy="590" r="10" fill="rgb(0,0,0)" stroke-width="1" stroke="rgb(0,0,0)" />
	<circle cx="650" cy="470" r="10" fill="rgb(0,0,0)" stroke-width="1" stroke="rgb(0,0,0)" />
	<circle cx="650" cy="350" r="10" fill="rgb(0,0,0)" stroke-width="1" stroke="rgb(0,0,0)" />
	<circle cx="650" cy="230" r="10" fill="rgb(0,0,0)" stroke-width="1" stroke="rgb(0,0,0)" />
	<circle cx="650" cy="110" r="10" fill="rgb(0,0,0)" stroke-width="1" stroke="rgb(0,0,0)" />
	<circle cx="770" cy="950" r="10" fill="rgb(0,0,0)" stroke-width="1" stroke="rgb(0,0,0)" />
	<circle cx="770" cy="830" r="10" fill="rgb(0,0,0)" stroke-width="1" stroke="rgb(0,0,0)" />
	<circle cx="770" cy="710" r="10" fill="rgb(0,0,0)" stroke-width="1" stroke="rgb(0,0,0)" />
	<circle cx="770" cy="590" r="10" fill="rgb(0,0,0)" stroke-width="1" stroke="rgb(0,0,0)" />
	<circle cx="770" cy="470" r="10" fill="rgb(0,0,0)" stroke-width="1" stroke="rgb(0,0,0)" />
	<circle cx="770" cy="350" r="10" fill="rgb(0,0,0)" stroke-width="1" stroke="rgb(0,0,0)" />
	<circle cx="770" cy="230" r="10" fill="rgb(0,0,0)" stroke-width="1" stroke="rgb(0,0,0)" />
	<circle cx="770" cy="110" r="10" fill="rgb(0,0,0)" stroke-width="1" stroke="rgb(0,0,0)" />
	<circle cx="890" cy="950" r="10" fill="rgb(0,0,0)" stroke-width="1" stroke="rgb(0,0,0)" />
	<circle cx="890" cy="830" r="10" fill="rgb(0,0,0)" stroke-width="1" stroke="rgb(0,0,0)" />
	<circle cx="890" cy="710" r="10" fill="rgb(0,0,0)" stroke-width="1" stroke="rgb(0,0,0)" />
	<circle cx="890" cy="590" r="10" fill="rgb(0,0,0)" stroke-width="1" stroke="rgb(0,0,0)" />
	<circle cx="890" cy="470" r="10" fill="rgb(0,0,0)" stroke-width="1" stroke="rgb(0,0,0)" />
	<circle cx="890" cy="350" r="10" fill="rgb(0,0,0)" stroke-width="1" stroke="rgb(0,0,0)" />
	<circle cx="890" cy="230" r="10" fill="rgb(0,0,0)" stroke-width="1" stroke="rgb(0,0,0)" />
	<circle cx="890" cy="110" r="10" fill="rgb(0,0,0)" stroke-width="1" stroke="rgb(0,0,0)" />
	<circle cx="1010" cy="950" r="10" fill="rgb(0,0,0)" stroke-width="1" stroke="rgb(0,0,0)" />
	<circle cx="1010" cy="830" r="10" fill="rgb(0,0,0)" stroke-width="1" stroke="rgb(0,0,0)" />
	<circle cx="1010" cy="710" r="10" fill="rgb(0,0,0)" stroke-width="1" stroke="rgb(0,0,0)" />
	<circle cx="1010" cy="590" r="10" fill="rgb(0,0,0)" stroke-width="1" stroke="rgb(0,0,0)" />
	<circle cx="1010" cy="470" r="10" fill="rgb(0,0,0)" stroke-width="1" stroke="rgb(0,0,0)" />
	<circle cx="1010" cy="350" r="10" fill="rgb(0,0,0)" stroke-width="1" stroke="rgb(0,0,0)" />
	<circle cx="1010" cy="230" r="10" fill="rgb(0,0,0)" stroke-width="1" stroke="rgb(0,0,0)" />
	<circle cx="1010" cy="110" r="10" fill="rgb(0,0,0)" stroke-width="1" stroke="rgb(0,0,0)" />
	<circle cx="1130" cy="950" r="10" fill="rgb(0,0,0)" stroke-width="1" stroke="rgb(0,0,0)" />
	<circle cx="1130" cy="830" r="10" fill="rgb(0,0,0)" stroke-width="1" stroke="rgb(0,0,0)" />
	<circle cx="1130" cy="710" r="10" fill="rgb(0,0,0)" stroke-width="1" stroke="rgb(0,0,0)" />
	<circle cx="1130" cy="590" r="10" fill="rgb(0,0,0)" stroke-width="1" stroke="rgb(0,0,0)" />
	<circle cx="1130" cy="470" r="10" fill="rgb(0,0,0)" stroke-width="1" stroke="rgb(0,0,0)" />
	<circle cx="1130" cy="350" r="10" fill="rgb(0,0,0)" stroke-width="1" stroke="rgb(0,0,0)" />
	<circle cx="1130" cy="230" r="10" fill="rgb(0,0,0)" stroke-width="1" stroke="rgb(0,0,0)" />
	<circle cx="1130" cy="110" r="10" fill="rgb(0,0,0)" stroke-width="1" stroke="rgb(0,0,0)" />
	<circle cx="50" cy="950" r="10" fill="rgb(0,0,256)" stroke-width="1" stroke="rgb(0,0,256)" />
	<circle cx="1130" cy="950" r="10" fill="rgb(0,256,0)" stroke-width="1" stroke="rgb(0,256,0)" />
</svg>
