<?xml version="1.0" standalone="no" ?>
<!DOCTYPE svg PUBLIC "-//W3C//DTD SVG 1.1//EN" "http://www.w3.org/Graphics/SVG/1.1/DTD/svg11.dtd">
<svg width="2000px" height="1000px" xmlns="http://www.w3.org/2000/svg" version="1.1" >
	<polyline points="50,950 50,830 " fill="transparent" stroke-width="3" stroke="rgb(0,0,0)" />
	<polyline points="50,950 170,950 " fill="transparent" stroke-width="3" stroke="rgb(0,0,0)" />
	<polyline points="50,950 170,830 " fill="transparent" stroke-width="3" stroke="rgb(0,0,0)" />
	<polyline points="50,950 170,710 " fill="transparent" stroke-width="3" stroke="rgb(0,0,0)" />
	<polyline points="50,830 170,710 " fill="transparent" stroke-width="3" stroke="rgb(0,0,0)" />
	<polyline points="50,710 50,830 " fill="transparent" stroke-width="3" stroke="rgb(0,0,0)" />
	<polyline points="50,710 50,590 " fill="transparent" stroke-width="3" stroke="rgb(0,0,0)" />
	<polyline points="50,710 170,590 " fill="transparent" stroke-width="3" stroke="rgb(0,0,0)" />
	<polyline points="170,830 290,590 " fill="transparent" stroke-width="3" stroke="rgb(0,0,0)" />
	<polyline points="170,710 290,590 " fill="transparent" stroke-width="3" stroke="rgb(0,0,0)" />
	<polyline points="170,590 50,830 " fill="transparent" stroke-width="3" stroke="rgb(0,0,0)" />
	<polyline points="170,590 50,590 " fill="transparent" stroke-width="3" stroke="rgb(0,0,0)" />
	<polyline points="290,950 170,950 " fill="transparent" stroke-width="3" stroke="rgb(0,0,0)" />
	<polyline points="290,950 410,950 " fill="transparent" stroke-width="3" stroke="rgb(0,0,0)" />
	<polyline points="290,950 410,830 " fill="transparent" stroke-width="3" stroke="rgb(0,0,0)" />
	<polyline points="290,950 530,830 " fill="transparent" stroke-width="3" stroke="rgb(0,0,0)" />
	<polyline points="290,830 170,950 " fill="transparent" stroke-width="3" stroke="rgb(0,0,0)" />
	<polyline points="290,830 170,830 " fill="transparent" stroke-width="3" stroke="rgb(0,0,0)" />
	<polyline points="290,830 410,830 " fill="transparent" stroke-width="3" stroke="rgb(0,0,0)" />
	<polyline points="290,830 530,710 " fill="transparent" stroke-width="3" stroke="rgb(0,0,0)" />
	<polyline points="290,710 170,830 " fill="transparent" stroke-width="3" stroke="rgb(0,0,0)" />
	<polyline points="290,710 290,830 " fill="transparent" stroke-width="3" stroke="rgb(0,0,0)" />
	<polyline points="290,710 410,710 " fill="transparent" stroke-width="3" stroke="rgb(0,0,0)" />
	<polyline points="290,710 410,590 " fill="transparent" stroke-width="3" stroke="rgb(0,0,0)" />
	<polyline points="410,830 170,950 " fill="transparent" stroke-width="3" stroke="rgb(0,0,0)" />
	<polyline points="410,710 530,710 " fill="transparent" stroke-width="3" stroke="rgb(0,0,0)" />
	<polyline points="410,710 530,590 " fill="transparent" stroke-width="3" stroke="rgb(0,0,0)" />
	<polyline points="410,710 650,590 " fill="transparent" stroke-width="3" stroke="rgb(0,0,0)" />
	<polyline points="410,590 290,590 " fill="transparent" stroke-width="3" stroke="rgb(0,0,0)" />
	<polyline points="530,950 650,950 " fill="transparent" stroke-width="3" stroke="rgb(0,0,0)" />
	<polyline points="530,830 410,950 " fill="transparent" stroke-width="3" stroke="rgb(0,0,0)" />
	<polyline points="530,830 410,830 " fill="transparent" stroke-width="3" stroke="rgb(0,0,0)" />
	<polyline points="530,830 530,950 " fill="transparent" stroke-width="3" stroke="rgb(0,0,0)" />
	<polyline points="530,830 530,710 " fill="transparent" stroke-width="3" stroke="rgb(0,0,0)" />
	<polyline points="530,830 650,830 " fill="transparent" stroke-width="3" stroke="rgb(0,0,0)" />
	<polyline points="530,830 650,590 " fill="transparent" stroke-width="3" stroke="rgb(0,0,0)" />
	<polyline points="530,710 650,590 " fill="transparent" stroke-width="3" stroke="rgb(0,0,0)" />
	<polyline points="530,590 410,590 " fill="transparent" stroke-width="3" stroke="rgb(0,0,0)" />
	<polyline points="650,950 770,950 " fill="transparent" stroke-width="3" stroke="rgb(0,0,0)" />
	<polyline points="650,830 530,950 " fill="transparent" stroke-width="3" stroke="rgb(0,0,0)" />
	<polyline points="650,830 650,950 " fill="transparent" stroke-width="3" stroke="rgb(0,0,0)" />
	<polyline points="650,830 650,710 " fill="transparent" stroke-width="3" stroke="rgb(0,0,0)" />
	<polyline points="650,830 770,710 " fill="transparent" stroke-width="3" stroke="rgb(0,0,0)" />
	<polyline points="650,830 770,590 " fill="transparent" stroke-width="3" stroke="rgb(0,0,0)" />
	<polyline points="650,830 890,710 " fill="transparent" stroke-width="3" stroke="rgb(0,0,0)" />
	<polyline points="650,710 650,590 " fill="transparent" stroke-width="3" stroke="rgb(0,0,0)" />
	<polyline points="770,830 890,710 " fill="transparent" stroke-width="3" stroke="rgb(0,0,0)" />
	<polyline points="770,830 1010,710 " fill="transparent" stroke-width="3" stroke="rgb(0,0,0)" />
	<polyline points="770,710 770,590 " fill="transparent" stroke-width="3" stroke="rgb(0,0,0)" />
	<polyline points="770,710 890,710 " fill="transparent" stroke-width="3" stroke="rgb(0,0,0)" />
	<polyline points="770,710 1010,590 " fill="transparent" stroke-width="3" stroke="rgb(0,0,0)" />
	<polyline points="770,590 650,590 " fill="transparent" stroke-width="3" stroke="rgb(0,0,0)" />
	<polyline points="770,590 890,590 " fill="transparent" stroke-width="3" stroke="rgb(0,0,0)" />
	<polyline points="890,950 1010,950 " fill="transparent" stroke-width="3" stroke="rgb(0,0,0)" />
	<polyline points="890,950 1010,830 " fill="transparent" stroke-width="3" stroke="rgb(0,0,0)" />
	<polyline points="890,950 1010,710 " fill="transparent" stroke-width="3" stroke="rgb(0,0,0)" />
	<polyline points="890,950 1130,830 " fill="transparent" stroke-width="3" stroke="rgb(0,0,0)" />
	<polyline points="890,830 650,950 " fill="transparent" stroke-width="3" stroke="rgb(0,0,0)" />
	<polyline points="890,830 770,950 " fill="transparent" stroke-width="3" stroke="rgb(0,0,0)" />
	<polyline points="890,830 890,950 " fill="transparent" stroke-width="3" stroke="rgb(0,0,0)" />
	<polyline points="890,710 1010,710 " fill="transparent" stroke-width="3" stroke="rgb(0,0,0)" />
	<polyline points="890,710 1010,590 " fill="transparent" stroke-width="3" stroke="rgb(0,0,0)" />
	<polyline points="890,710 1130,590 " fill="transparent" stroke-width="3" stroke="rgb(0,0,0)" />
	<polyline points="1010,950 1130,830 " fill="transparent" stroke-width="3" stroke="rgb(0,0,0)" />
	<polyline points="1010,830 1130,590 " fill="transparent" stroke-width="3" stroke="rgb(0,0,0)" />
	<polyline points="1010,710 1010,830 " fill="transparent" stroke-width="3" stroke="rgb(0,0,0)" />
	<polyline points="1010,590 890,590 " fill="transparent" stroke-width="3" stroke="rgb(0,0,0)" />
	<polyline points="1130,950 1250,830 " fill="transparent" stroke-width="3" stroke="rgb(0,0,0)" />
	<polyline points="1130,950 1250,710 " fill="transparent" stroke-width="3" stroke="rgb(0,0,0)" />
	<polyline points="1130,710 1010,830 " fill="transparent" stroke-width="3" stroke="rgb(0,0,0)" />
	<polyline points="1130,710 1130,590 " fill="transparent" stroke-width="3" stroke="rgb(0,0,0)" />
	<polyline points="1130,590 1250,590 " fill="transparent" stroke-width="3" stroke="rgb(0,0,0)" />
	<polyline points="1250,950 1250,830 " fill="transparent" stroke-width="3" stroke="rgb(0,0,0)" />
	<polyline points="1250,950 1370,950 " fill="transparent" stroke-width="3" stroke="rgb(0,0,0)" />
	<polyline points="1250,950 1370,830 " fill="transparent" stroke-width="3" stroke="rgb(0,0,0)" />
	<polyline points="1250,950 1490,830 " fill="transparent" stroke-width="3" stroke="rgb(0,0,0)" />
	<polyline points="1250,830 1370,830 " fill="transparent" stroke-width="3" stroke="rgb(0,0,0)" />
	<polyline points="1250,710 1010,830 " fill="transparent" stroke-width="3" stroke="rgb(0,0,0)" />
	<polyline points="1250,710 1130,830 " fill="transparent" stroke-width="3" stroke="rgb(0,0,0)" />
	<polyline points="1250,710 1130,590 " fill="transparent" stroke-width="3" stroke="rgb(0,0,0)" />
	<polyline points="1250,710 1250,830 " fill="transparent" stroke-width="3" stroke="rgb(0,0,0)" />
	<polyline points="1250,710 1250,590 " fill="transparent" stroke-width="3" stroke="rgb(0,0,0)" />
	<polyline points="1250,710 1370,710 " fill="transparent" stroke-width="3" stroke="rgb(0,0,0)" />
	<polyline points="1250,710 1370,590 " fill="transparent" stroke-width="3" stroke="rgb(0,0,0)" />
	<polyline points="1250,590 1370,590 " fill="transparent" stroke-width="3" stroke="rgb(0,0,0)" />
	<polyline points="1370,950 1490,830 " fill="transparent" stroke-width="3" stroke="rgb(0,0,0)" />
	<polyline points="1370,950 1610,830 " fill="transparent" stroke-width="3" stroke="rgb(0,0,0)" />
	<polyline points="1370,830 1490,830 " fill="transparent" stroke-width="3" stroke="rgb(0,0,0)" />
	<polyline points="1370,710 1250,830 " fill="transparent" stroke-width="3" stroke="rgb(0,0,0)" />
	<polyline points="1370,710 1370,590 " fill="transparent" stroke-width="3" stroke="rgb(0,0,0)" />
	<polyline points="1370,710 1490,710 " fill="transparent" stroke-width="3" stroke="rgb(0,0,0)" />
	<polyline points="1370,710 1490,590 " fill="transparent" stroke-width="3" stroke="rgb(0,0,0)" />
	<polyline points="1370,710 1610,590 " fill="transparent" stroke-width="3" stroke="rgb(0,0,0)" />
	<polyline points="1490,950 1610,950 " fill="transparent" stroke-width="3" stroke="rgb(0,0,0)" />
	<polyline points="1490,950 1610,830 " fill="transparent" stroke-width="3" stroke="rgb(0,0,0)" />
	<polyline points="1490,950 1730,830 " fill="transparent" stroke-width="3" stroke="rgb(0,0,0)" />
	<polyline points="1490,830 1610,830 " fill="transparent" stroke-width="3" stroke="rgb(0,0,0)" />
	<polyline points="1490,830 1610,590 " fill="transparent" stroke-width="3" stroke="rgb(0,0,0)" />
	<polyline points="1490,710 1250,830 " fill="transparent" stroke-width="3" stroke="rgb(0,0,0)" />
	<polyline points="1490,710 1490,830 " fill="transparent" stroke-width="3" stroke="rgb(0,0,0)" />
	<polyline points="1490,710 1610,590 " fill="transparent" stroke-width="3" stroke="rgb(0,0,0)" />
	<polyline points="1490,590 1370,590 " fill="transparent" stroke-width="3" stroke="rgb(0,0,0)" />
	<polyline points="1490,590 1610,590 " fill="transparent" stroke-width="3" stroke="rgb(0,0,0)" />
	<polyline points="1610,950 1730,950 " fill="transparent" stroke-width="3" stroke="rgb(0,0,0)" />
	<polyline points="1610,950 1730,830 " fill="transparent" stroke-width="3" stroke="rgb(0,0,0)" />
	<polyline points="1610,830 1730,830 " fill="transparent" stroke-width="3" stroke="rgb(0,0,0)" />
	<polyline points="1610,710 1490,830 " fill="transparent" stroke-width="3" stroke="rgb(0,0,0)" />
	<polyline points="1610,710 1610,830 " fill="transparent" stroke-width="3" stroke="rgb(0,0,0)" />
	<polyline points="1610,710 1610,590 " fill="transparent" stroke-width="3" stroke="rgb(0,0,0)" />
	<polyline points="1610,710 1730,590 " fill="transparent" stroke-width="3" stroke="rgb(0,0,0)" />
	<polyline points="1610,590 1730,590 " fill="transparent" stroke-width="3" stroke="rgb(0,0,0)" />
	<polyline points="1730,950 1730,830 " fill="transparent" stroke-width="3" stroke="rgb(0,0,0)" />
	<polyline points="1730,710 1610,830 " fill="transparent" stroke-width="3" stroke="rgb(0,0,0)" />
	<polyline points="1730,710 1730,830 " fill="transparent" stroke-width="3" stroke="rgb(0,0,0)" />
	<polyline points="1730,710 1730,590 " fill="transparent" stroke-width="3" stroke="rgb(0,0,0)" />
	<polyline points="50,950 170,950 " fill="transparent" stroke-width="3" stroke="rgb(255,0,0)" />
	<polyline points="290,950 170,950 " fill="transparent" stroke-width="3" stroke="rgb(255,0,0)" />
	<polyline points="290,950 530,830 " fill="transparent" stroke-width="3" stroke="rgb(255,0,0)" />
	<polyline points="530,830 650,830 " fill="transparent" stroke-width="3" stroke="rgb(255,0,0)" />
	<polyline points="650,830 890,710 " fill="transparent" stroke-width="3" stroke="rgb(255,0,0)" />
	<polyline points="890,710 1130,590 " fill="transparent" stroke-width="3" stroke="rgb(255,0,0)" />
	<polyline points="1250,710 1130,590 " fill="transparent" stroke-width="3" stroke="rgb(255,0,0)" />
	<polyline points="1250,710 1370,710 " fill="transparent" stroke-width="3" stroke="rgb(255,0,0)" />
	<polyline points="1370,710 1490,710 " fill="transparent" stroke-width="3" stroke="rgb(255,0,0)" />
	<polyline points="1490,830 1610,830 " fill="transparent" stroke-width="3" stroke="rgb(255,0,0)" />
	<polyline points="1490,710 1490,830 " fill="transparent" stroke-width="3" stroke="rgb(255,0,0)" />
	<polyline points="1610,830 1730,830 " fill="transparent" stroke-width="3" stroke="rgb(255,0,0)" />
	<polyline points="1730,950 1730,830 " fill="transparent" stroke-width="3" stroke="rgb(255,0,0)" />
	<circle cx="50" cy="950" r="10" fill="rgb(0,0,0)" stroke-width="1" stroke="rgb(0,0,0)" />
	<circle cx="50" cy="830" r="10" fill="rgb(0,0,0)" stroke-width="1" stroke="rgb(0,0,0)" />
	<circle cx="50" cy="710" r="10" fill="rgb(0,0,0)" stroke-width="1" stroke="rgb(0,0,0)" />
	<circle cx="50" cy="590" r="10" fill="rgb(0,0,0)" stroke-width="1" stroke="rgb(0,0,0)" />
	<circle cx="170" cy="950" r="10" fill="rgb(0,0,0)" stroke-width="1" stroke="rgb(0,0,0)" />
	<circle cx="170" cy="830" r="10" fill="rgb(0,0,0)" stroke-width="1" stroke="rgb(0,0,0)" />
	<circle cx="170" cy="710" r="10" fill="rgb(0,0,0)" stroke-width="1" stroke="rgb(0,0,0)" />
	<circle cx="170" cy="590" r="10" fill="rgb(0,0,0)" stroke-width="1" stroke="rgb(0,0,0)" />
	<circle cx="290" cy="950" r="10" fill="rgb(0,0,0)" stroke-width="1" stroke="rgb(0,0,0)" />
	<circle cx="290" cy="830" r="10" fill="rgb(0,0,0)" stroke-width="1" stroke="rgb(0,0,0)" />
	<circle cx="290" cy="710" r="10" fill="rgb(0,0,0)" stroke-width="1" stroke="rgb(0,0,0)" />
	<circle cx="290" cy="590" r="10" fill="rgb(0,0,0)" stroke-width="1" stroke="rgb(0,0,0)" />
	<circle cx="410" cy="950" r="10" fill="rgb(0,0,0)" stroke-width="1" stroke="rgb(0,0,0)" />
	<circle cx="410" cy="830" r="10" fill="rgb(0,0,0)" stroke-width="1" stroke="rgb(0,0,0)" />
	<circle cx="410" cy="710" r="10" fill="rgb(0,0,0)" stroke-width="1" stroke="rgb(0,0,0)" />
	<circle cx="410" cy="590" r="10" fill="rgb(0,0,0)" stroke-width="1" stroke="rgb(0,0,0)" />
	<circle cx="530" cy="950" r="10" fill="rgb(0,0,0)" stroke-width="1" stroke="rgb(0,0,0)" />
	<circle cx="530" cy="830" r="10" fill="rgb(0,0,0)" stroke-width="1" stroke="rgb(0,0,0)" />
	<circle cx="530" cy="710" r="10" fill="rgb(0,0,0)" stroke-width="1" stroke="rgb(0,0,0)" />
	<circle cx="530" cy="590" r="10" fill="rgb(0,0,0)" stroke-width="1" stroke="rgb(0,0,0)" />
	<circle cx="650" cy="950" r="10" fill="rgb(0,0,0)" stroke-width="1" stroke="rgb(0,0,0)" />
	<circle cx="650" cy="830" r="10" fill="rgb(0,0,0)" stroke-width="1" stroke="rgb(0,0,0)" />
	<circle cx="650" cy="710" r="10" fill="rgb(0,0,0)" stroke-width="1" stroke="rgb(0,0,0)" />
	<circle cx="650" cy="590" r="10" fill="rgb(0,0,0)" stroke-width="1" stroke="rgb(0,0,0)" />
	<circle cx="770" cy="950" r="10" fill="rgb(0,0,0)" stroke-width="1" stroke="rgb(0,0,0)" />
	<circle cx="770" cy="830" r="10" fill="rgb(0,0,0)" stroke-width="1" stroke="rgb(0,0,0)" />
	<circle cx="770" cy="710" r="10" fill="rgb(0,0,0)" stroke-width="1" stroke="rgb(0,0,0)" />
	<circle cx="770" cy="590" r="10" fill="rgb(0,0,0)" stroke-width="1" stroke="rgb(0,0,0)" />
	<circle cx="890" cy="950" r="10" fill="rgb(0,0,0)" stroke-width="1" stroke="rgb(0,0,0)" />
	<circle cx="890" cy="830" r="10" fill="rgb(0,0,0)" stroke-width="1" stroke="rgb(0,0,0)" />
	<circle cx="890" cy="710" r="10" fill="rgb(0,0,0)" stroke-width="1" stroke="rgb(0,0,0)" />
	<circle cx="890" cy="590" r="10" fill="rgb(0,0,0)" stroke-width="1" stroke="rgb(0,0,0)" />
	<circle cx="1010" cy="950" r="10" fill="rgb(0,0,0)" stroke-width="1" stroke="rgb(0,0,0)" />
	<circle cx="1010" cy="830" r="10" fill="rgb(0,0,0)" stroke-width="1" stroke="rgb(0,0,0)" />
	<circle cx="1010" cy="710" r="10" fill="rgb(0,0,0)" stroke-width="1" stroke="rgb(0,0,0)" />
	<circle cx="1010" cy="590" r="10" fill="rgb(0,0,0)" stroke-width="1" stroke="rgb(0,0,0)" />
	<circle cx="1130" cy="950" r="10" fill="rgb(0,0,0)" stroke-width="1" stroke="rgb(0,0,0)" />
	<circle cx="1130" cy="830" r="10" fill="rgb(0,0,0)" stroke-width="1" stroke="rgb(0,0,0)" />
	<circle cx="1130" cy="710" r="10" fill="rgb(0,0,0)" stroke-width="1" stroke="rgb(0,0,0)" />
	<circle cx="1130" cy="590" r="10" fill="rgb(0,0,0)" stroke-width="1" stroke="rgb(0,0,0)" />
	<circle cx="1250" cy="950" r="10" fill="rgb(0,0,0)" stroke-width="1" stroke="rgb(0,0,0)" />
	<circle cx="1250" cy="830" r="10" fill="rgb(0,0,0)" stroke-width="1" stroke="rgb(0,0,0)" />
	<circle cx="1250" cy="710" r="10" fill="rgb(0,0,0)" stroke-width="1" stroke="rgb(0,0,0)" />
	<circle cx="1250" cy="590" r="10" fill="rgb(0,0,0)" stroke-width="1" stroke="rgb(0,0,0)" />
	<circle cx="1370" cy="950" r="10" fill="rgb(0,0,0)" stroke-width="1" stroke="rgb(0,0,0)" />
	<circle cx="1370" cy="830" r="10" fill="rgb(0,0,0)" stroke-width="1" stroke="rgb(0,0,0)" />
	<circle cx="1370" cy="710" r="10" fill="rgb(0,0,0)" stroke-width="1" stroke="rgb(0,0,0)" />
	<circle cx="1370" cy="590" r="10" fill="rgb(0,0,0)" stroke-width="1" stroke="rgb(0,0,0)" />
	<circle cx="1490" cy="950" r="10" fill="rgb(0,0,0)" stroke-width="1" stroke="rgb(0,0,0)" />
	<circle cx="1490" cy="830" r="10" fill="rgb(0,0,0)" stroke-width="1" stroke="rgb(0,0,0)" />
	<circle cx="1490" cy="710" r="10" fill="rgb(0,0,0)" stroke-width="1" stroke="rgb(0,0,0)" />
	<circle cx="1490" cy="590" r="10" fill="rgb(0,0,0)" stroke-width="1" stroke="rgb(0,0,0)" />
	<circle cx="1610" cy="950" r="10" fill="rgb(0,0,0)" stroke-width="1" stroke="rgb(0,0,0)" />
	<circle cx="1610" cy="830" r="10" fill="rgb(0,0,0)" stroke-width="1" stroke="rgb(0,0,0)" />
	<circle cx="1610" cy="710" r="10" fill="rgb(0,0,0)" stroke-width="1" stroke="rgb(0,0,0)" />
	<circle cx="1610" cy="590" r="10" fill="rgb(0,0,0)" stroke-width="1" stroke="rgb(0,0,0)" />
	<circle cx="1730" cy="950" r="10" fill="rgb(0,0,0)" stroke-width="1" stroke="rgb(0,0,0)" />
	<circle cx="1730" cy="830" r="10" fill="rgb(0,0,0)" stroke-width="1" stroke="rgb(0,0,0)" />
	<circle cx="1730" cy="710" r="10" fill="rgb(0,0,0)" stroke-width="1" stroke="rgb(0,0,0)" />
	<circle cx="1730" cy="590" r="10" fill="rgb(0,0,0)" stroke-width="1" stroke="rgb(0,0,0)" />
	<circle cx="50" cy="950" r="10" fill="rgb(0,0,256)" stroke-width="1" stroke="rgb(0,0,256)" />
	<circle cx="1730" cy="950" r="10" fill="rgb(0,256,0)" stroke-width="1" stroke="rgb(0,256,0)" />
</svg>
