<?xml version="1.0" standalone="no" ?>
<!DOCTYPE svg PUBLIC "-//W3C//DTD SVG 1.1//EN" "http://www.w3.org/Graphics/SVG/1.1/DTD/svg11.dtd">
<svg width="2000px" height="1000px" xmlns="http://www.w3.org/2000/svg" version="1.1" >
	<polyline points="50,950 50,830 " fill="transparent" stroke-width="3" stroke="rgb(0,0,0)" />
	<polyline points="50,950 170,950 " fill="transparent" stroke-width="3" stroke="rgb(0,0,0)" />
	<polyline points="50,950 170,830 " fill="transparent" stroke-width="3" stroke="rgb(0,0,0)" />
	<polyline points="50,950 170,710 " fill="transparent" stroke-width="3" stroke="rgb(0,0,0)" />
	<polyline points="50,830 170,710 " fill="transparent" stroke-width="3" stroke="rgb(0,0,0)" />
	<polyline points="50,710 50,830 " fill="transparent" stroke-width="3" stroke="rgb(0,0,0)" />
	<polyline points="50,710 50,590 " fill="transparent" stroke-width="3" stroke="rgb(0,0,0)" />
	<polyline points="50,710 170,590 " fill="transparent" stroke-width="3" stroke="rgb(0,0,0)" />
	<polyline points="170,830 290,590 " fill="transparent" stroke-width="3" stroke="rgb(0,0,0)" />
	<polyline points="170,710 290,590 " fill="transparent" stroke-width="3" stroke="rgb(0,0,0)" />
	<polyline points="170,590 50,830 " fill="transparent" stroke-width="3" stroke="rgb(0,0,0)" />
	<polyline points="170,590 50,590 " fill="transparent" stroke-width="3" stroke="rgb(0,0,0)" />
	<polyline points="170,590 290,470 " fill="transparent" stroke-width="3" stroke="rgb(0,0,0)" />
	<polyline points="170,590 410,470 " fill="transparent" stroke-width="3" stroke="rgb(0,0,0)" />
	<polyline points="170,470 50,590 " fill="transparent" stroke-width="3" stroke="rgb(0,0,0)" />
	<polyline points="170,470 50,470 " fill="transparent" stroke-width="3" stroke="rgb(0,0,0)" />
	<polyline points="170,470 290,470 " fill="transparent" stroke-width="3" stroke="rgb(0,0,0)" />
	<polyline points="290,950 170,950 " fill="transparent" stroke-width="3" stroke="rgb(0,0,0)" />
	<polyline points="290,950 410,950 " fill="transparent" stroke-width="3" stroke="rgb(0,0,0)" />
	<polyline points="290,950 410,830 " fill="transparent" stroke-width="3" stroke="rgb(0,0,0)" />
	<polyline points="290,950 530,830 " fill="transparent" stroke-width="3" stroke="rgb(0,0,0)" />
	<polyline points="290,830 170,950 " fill="transparent" stroke-width="3" stroke="rgb(0,0,0)" />
	<polyline points="290,830 170,830 " fill="transparent" stroke-width="3" stroke="rgb(0,0,0)" />
	<polyline points="290,830 410,830 " fill="transparent" stroke-width="3" stroke="rgb(0,0,0)" />
	<polyline points="290,830 530,710 " fill="transparent" stroke-width="3" stroke="rgb(0,0,0)" />
	<polyline points="290,710 170,830 " fill="transparent" stroke-width="3" stroke="rgb(0,0,0)" />
	<polyline points="290,710 290,830 " fill="transparent" stroke-width="3" stroke="rgb(0,0,0)" />
	<polyline points="290,710 410,710 " fill="transparent" stroke-width="3" stroke="rgb(0,0,0)" />
	<polyline points="290,710 410,590 " fill="transparent" stroke-width="3" stroke="rgb(0,0,0)" />
	<polyline points="290,590 410,470 " fill="transparent" stroke-width="3" stroke="rgb(0,0,0)" />
	<polyline points="290,470 50,590 " fill="transparent" stroke-width="3" stroke="rgb(0,0,0)" />
	<polyline points="290,470 410,470 " fill="transparent" stroke-width="3" stroke="rgb(0,0,0)" />
	<polyline points="410,830 170,950 " fill="transparent" stroke-width="3" stroke="rgb(0,0,0)" />
	<polyline points="410,710 530,710 " fill="transparent" stroke-width="3" stroke="rgb(0,0,0)" />
	<polyline points="410,710 530,590 " fill="transparent" stroke-width="3" stroke="rgb(0,0,0)" />
	<polyline points="410,590 290,590 " fill="transparent" stroke-width="3" stroke="rgb(0,0,0)" />
	<polyline points="410,590 530,470 " fill="transparent" stroke-width="3" stroke="rgb(0,0,0)" />
	<polyline points="530,830 410,950 " fill="transparent" stroke-width="3" stroke="rgb(0,0,0)" />
	<polyline points="530,830 410,830 " fill="transparent" stroke-width="3" stroke="rgb(0,0,0)" />
	<polyline points="530,830 530,950 " fill="transparent" stroke-width="3" stroke="rgb(0,0,0)" />
	<polyline points="530,830 530,710 " fill="transparent" stroke-width="3" stroke="rgb(0,0,0)" />
	<polyline points="530,590 410,590 " fill="transparent" stroke-width="3" stroke="rgb(0,0,0)" />
	<polyline points="530,470 290,590 " fill="transparent" stroke-width="3" stroke="rgb(0,0,0)" />
	<polyline points="530,470 410,470 " fill="transparent" stroke-width="3" stroke="rgb(0,0,0)" />
	<polyline points="50,950 170,830 " fill="transparent" stroke-width="3" stroke="rgb(255,0,0)" />
	<polyline points="290,710 170,830 " fill="transparent" stroke-width="3" stroke="rgb(255,0,0)" />
	<polyline points="290,710 410,590 " fill="transparent" stroke-width="3" stroke="rgb(255,0,0)" />
	<polyline points="410,590 530,470 " fill="transparent" stroke-width="3" stroke="rgb(255,0,0)" />
	<circle cx="50" cy="950" r="10" fill="rgb(0,0,0)" stroke-width="1" stroke="rgb(0,0,0)" />
	<circle cx="50" cy="830" r="10" fill="rgb(0,0,0)" stroke-width="1" stroke="rgb(0,0,0)" />
	<circle cx="50" cy="710" r="10" fill="rgb(0,0,0)" stroke-width="1" stroke="rgb(0,0,0)" />
	<circle cx="50" cy="590" r="10" fill="rgb(0,0,0)" stroke-width="1" stroke="rgb(0,0,0)" />
	<circle cx="50" cy="470" r="10" fill="rgb(0,0,0)" stroke-width="1" stroke="rgb(0,0,0)" />
	<circle cx="170" cy="950" r="10" fill="rgb(0,0,0)" stroke-width="1" stroke="rgb(0,0,0)" />
	<circle cx="170" cy="830" r="10" fill="rgb(0,0,0)" stroke-width="1" stroke="rgb(0,0,0)" />
	<circle cx="170" cy="710" r="10" fill="rgb(0,0,0)" stroke-width="1" stroke="rgb(0,0,0)" />
	<circle cx="170" cy="590" r="10" fill="rgb(0,0,0)" stroke-width="1" stroke="rgb(0,0,0)" />
	<circle cx="170" cy="470" r="10" fill="rgb(0,0,0)" stroke-width="1" stroke="rgb(0,0,0)" />
	<circle cx="290" cy="950" r="10" fill="rgb(0,0,0)" stroke-width="1" stroke="rgb(0,0,0)" />
	<circle cx="290" cy="830" r="10" fill="rgb(0,0,0)" stroke-width="1" stroke="rgb(0,0,0)" />
	<circle cx="290" cy="710" r="10" fill="rgb(0,0,0)" stroke-width="1" stroke="rgb(0,0,0)" />
	<circle cx="290" cy="590" r="10" fill="rgb(0,0,0)" stroke-width="1" stroke="rgb(0,0,0)" />
	<circle cx="290" cy="470" r="10" fill="rgb(0,0,0)" stroke-width="1" stroke="rgb(0,0,0)" />
	<circle cx="410" cy="950" r="10" fill="rgb(0,0,0)" stroke-width="1" stroke="rgb(0,0,0)" />
	<circle cx="410" cy="830" r="10" fill="rgb(0,0,0)" stroke-width="1" stroke="rgb(0,0,0)" />
	<circle cx="410" cy="710" r="10" fill="rgb(0,0,0)" stroke-width="1" stroke="rgb(0,0,0)" />
	<circle cx="410" cy="590" r="10" fill="rgb(0,0,0)" stroke-width="1" stroke="rgb(0,0,0)" />
	<circle cx="410" cy="470" r="10" fill="rgb(0,0,0)" stroke-width="1" stroke="rgb(0,0,0)" />
	<circle cx="530" cy="950" r="10" fill="rgb(0,0,0)" stroke-width="1" stroke="rgb(0,0,0)" />
	<circle cx="530" cy="830" r="10" fill="rgb(0,0,0)" stroke-width="1" stroke="rgb(0,0,0)" />
	<circle cx="530" cy="710" r="10" fill="rgb(0,0,0)" stroke-width="1" stroke="rgb(0,0,0)" />
	<circle cx="530" cy="590" r="10" fill="rgb(0,0,0)" stroke-width="1" stroke="rgb(0,0,0)" />
	<circle cx="530" cy="470" r="10" fill="rgb(0,0,0)" stroke-width="1" stroke="rgb(0,0,0)" />
	<circle cx="50" cy="950" r="10" fill="rgb(0,0,256)" stroke-width="1" stroke="rgb(0,0,256)" />
	<circle cx="530" cy="470" r="10" fill="rgb(0,256,0)" stroke-width="1" stroke="rgb(0,256,0)" />
</svg>
